{
	"patcher" : 	{
		"fileversion" : 1,
		"appversion" : 		{
			"major" : 8,
			"minor" : 1,
			"revision" : 5,
			"architecture" : "x64",
			"modernui" : 1
		}
,
		"classnamespace" : "box",
		"rect" : [ 34.0, 79.0, 887.0, 687.0 ],
		"bglocked" : 0,
		"openinpresentation" : 0,
		"default_fontsize" : 12.0,
		"default_fontface" : 0,
		"default_fontname" : "Arial",
		"gridonopen" : 1,
		"gridsize" : [ 15.0, 15.0 ],
		"gridsnaponopen" : 1,
		"objectsnaponopen" : 1,
		"statusbarvisible" : 2,
		"toolbarvisible" : 1,
		"lefttoolbarpinned" : 0,
		"toptoolbarpinned" : 0,
		"righttoolbarpinned" : 0,
		"bottomtoolbarpinned" : 0,
		"toolbars_unpinned_last_save" : 0,
		"tallnewobj" : 0,
		"boxanimatetime" : 200,
		"enablehscroll" : 1,
		"enablevscroll" : 1,
		"devicewidth" : 0.0,
		"description" : "",
		"digest" : "",
		"tags" : "",
		"style" : "",
		"subpatcher_template" : "",
		"assistshowspatchername" : 0,
		"boxes" : [ 			{
				"box" : 				{
					"id" : "obj-84",
					"maxclass" : "comment",
					"numinlets" : 1,
					"numoutlets" : 0,
					"patching_rect" : [ 298.5, 547.0, 20.0, 20.0 ],
					"presentation" : 1,
					"presentation_rect" : [ 328.5, 184.0, 20.0, 20.0 ],
					"text" : "Z"
				}

			}
, 			{
				"box" : 				{
					"id" : "obj-83",
					"maxclass" : "comment",
					"numinlets" : 1,
					"numoutlets" : 0,
					"patching_rect" : [ 202.0, 544.5, 20.0, 20.0 ],
					"presentation" : 1,
					"presentation_rect" : [ 232.0, 181.5, 20.0, 20.0 ],
					"text" : "Z"
				}

			}
, 			{
				"box" : 				{
					"id" : "obj-82",
					"maxclass" : "comment",
					"numinlets" : 1,
					"numoutlets" : 0,
					"patching_rect" : [ 99.0, 551.0, 20.0, 20.0 ],
					"presentation" : 1,
					"presentation_rect" : [ 129.0, 188.0, 20.0, 20.0 ],
					"text" : "Z"
				}

			}
, 			{
				"box" : 				{
					"id" : "obj-81",
					"maxclass" : "comment",
					"numinlets" : 1,
					"numoutlets" : 0,
					"patching_rect" : [ 261.0, 547.0, 20.0, 20.0 ],
					"presentation" : 1,
					"presentation_rect" : [ 291.0, 184.0, 20.0, 20.0 ],
					"text" : "H"
				}

			}
, 			{
				"box" : 				{
					"id" : "obj-80",
					"maxclass" : "comment",
					"numinlets" : 1,
					"numoutlets" : 0,
					"patching_rect" : [ 160.0, 547.0, 20.0, 20.0 ],
					"presentation" : 1,
					"presentation_rect" : [ 190.0, 184.0, 20.0, 20.0 ],
					"text" : "H"
				}

			}
, 			{
				"box" : 				{
					"id" : "obj-79",
					"maxclass" : "comment",
					"numinlets" : 1,
					"numoutlets" : 0,
					"patching_rect" : [ 51.0, 551.0, 20.0, 20.0 ],
					"presentation" : 1,
					"presentation_rect" : [ 81.0, 188.0, 20.0, 20.0 ],
					"text" : "H"
				}

			}
, 			{
				"box" : 				{
					"id" : "obj-78",
					"maxclass" : "comment",
					"numinlets" : 1,
					"numoutlets" : 0,
					"patching_rect" : [ 606.0, 343.5, 150.0, 20.0 ]
				}

			}
, 			{
				"box" : 				{
					"id" : "obj-73",
					"maxclass" : "newobj",
					"numinlets" : 2,
					"numoutlets" : 1,
					"outlettype" : [ "signal" ],
					"patching_rect" : [ 766.25, 351.0, 29.5, 22.0 ],
					"text" : "*~"
				}

			}
, 			{
				"box" : 				{
					"id" : "obj-74",
					"maxclass" : "newobj",
					"numinlets" : 2,
					"numoutlets" : 1,
					"outlettype" : [ "signal" ],
					"patching_rect" : [ 733.25, 351.0, 29.5, 22.0 ],
					"text" : "*~"
				}

			}
, 			{
				"box" : 				{
					"id" : "obj-75",
					"maxclass" : "newobj",
					"numinlets" : 2,
					"numoutlets" : 1,
					"outlettype" : [ "signal" ],
					"patching_rect" : [ 694.25, 351.0, 29.5, 22.0 ],
					"text" : "*~"
				}

			}
, 			{
				"box" : 				{
					"id" : "obj-76",
					"maxclass" : "newobj",
					"numinlets" : 2,
					"numoutlets" : 1,
					"outlettype" : [ "signal" ],
					"patching_rect" : [ 661.25, 351.0, 29.5, 22.0 ],
					"text" : "*~"
				}

			}
, 			{
				"box" : 				{
					"floatoutput" : 1,
					"id" : "obj-71",
					"maxclass" : "dial",
					"numinlets" : 1,
					"numoutlets" : 1,
					"outlettype" : [ "float" ],
					"parameter_enable" : 1,
					"patching_rect" : [ 288.5, 577.0, 40.0, 40.0 ],
					"presentation" : 1,
					"presentation_rect" : [ 318.5, 214.0, 40.0, 40.0 ],
					"saved_attribute_attributes" : 					{
						"valueof" : 						{
							"parameter_longname" : "dial[5]",
							"parameter_mmax" : 1.0,
							"parameter_shortname" : "dial[5]",
							"parameter_type" : 0
						}

					}
,
					"size" : 1.0,
					"varname" : "dial[5]"
				}

			}
, 			{
				"box" : 				{
					"floatoutput" : 1,
					"id" : "obj-72",
					"maxclass" : "dial",
					"numinlets" : 1,
					"numoutlets" : 1,
					"outlettype" : [ "float" ],
					"parameter_enable" : 1,
					"patching_rect" : [ 245.0, 577.0, 40.0, 40.0 ],
					"presentation" : 1,
					"presentation_rect" : [ 275.0, 214.0, 40.0, 40.0 ],
					"saved_attribute_attributes" : 					{
						"valueof" : 						{
							"parameter_longname" : "dial[4]",
							"parameter_mmax" : 1.0,
							"parameter_shortname" : "dial[4]",
							"parameter_type" : 0
						}

					}
,
					"size" : 1.0,
					"varname" : "dial[4]"
				}

			}
, 			{
				"box" : 				{
					"id" : "obj-70",
					"maxclass" : "comment",
					"numinlets" : 1,
					"numoutlets" : 0,
					"patching_rect" : [ 340.0, 547.0, 80.0, 20.0 ],
					"presentation" : 1,
					"presentation_rect" : [ 370.0, 184.0, 80.0, 20.0 ],
					"text" : "zoom to HP"
				}

			}
, 			{
				"box" : 				{
					"id" : "obj-69",
					"maxclass" : "comment",
					"numinlets" : 1,
					"numoutlets" : 0,
					"patching_rect" : [ 261.0, 522.5, 46.0, 20.0 ],
					"presentation" : 1,
					"presentation_rect" : [ 291.0, 159.5, 46.0, 20.0 ],
					"text" : "delay"
				}

			}
, 			{
				"box" : 				{
					"id" : "obj-67",
					"maxclass" : "comment",
					"numinlets" : 1,
					"numoutlets" : 0,
					"patching_rect" : [ 160.0, 522.5, 52.0, 20.0 ],
					"presentation" : 1,
					"presentation_rect" : [ 190.0, 159.5, 52.0, 20.0 ],
					"text" : "mod in"
				}

			}
, 			{
				"box" : 				{
					"floatoutput" : 1,
					"id" : "obj-48",
					"maxclass" : "dial",
					"numinlets" : 1,
					"numoutlets" : 1,
					"outlettype" : [ "float" ],
					"parameter_enable" : 1,
					"patching_rect" : [ 348.0, 577.0, 40.0, 40.0 ],
					"presentation" : 1,
					"presentation_rect" : [ 378.0, 214.0, 40.0, 40.0 ],
					"saved_attribute_attributes" : 					{
						"valueof" : 						{
							"parameter_longname" : "dial[6]",
							"parameter_mmax" : 1.0,
							"parameter_shortname" : "dial[6]",
							"parameter_type" : 0
						}

					}
,
					"size" : 1.0,
					"varname" : "dial[6]"
				}

			}
, 			{
				"box" : 				{
					"id" : "obj-46",
					"maxclass" : "newobj",
					"numinlets" : 2,
					"numoutlets" : 1,
					"outlettype" : [ "signal" ],
					"patching_rect" : [ 321.5, 106.0, 29.5, 22.0 ],
					"text" : "*~"
				}

			}
, 			{
				"box" : 				{
					"id" : "obj-47",
					"maxclass" : "newobj",
					"numinlets" : 2,
					"numoutlets" : 1,
					"outlettype" : [ "signal" ],
					"patching_rect" : [ 288.5, 106.0, 29.5, 22.0 ],
					"text" : "*~"
				}

			}
, 			{
				"box" : 				{
					"id" : "obj-45",
					"maxclass" : "newobj",
					"numinlets" : 1,
					"numoutlets" : 2,
					"outlettype" : [ "signal", "signal" ],
					"patching_rect" : [ 296.0, 39.0, 55.0, 22.0 ],
					"text" : "adc~ 3 4"
				}

			}
, 			{
				"box" : 				{
					"floatoutput" : 1,
					"id" : "obj-44",
					"maxclass" : "dial",
					"numinlets" : 1,
					"numoutlets" : 1,
					"outlettype" : [ "float" ],
					"parameter_enable" : 1,
					"patching_rect" : [ 192.5, 577.0, 40.0, 40.0 ],
					"presentation" : 1,
					"presentation_rect" : [ 222.5, 214.0, 40.0, 40.0 ],
					"saved_attribute_attributes" : 					{
						"valueof" : 						{
							"parameter_longname" : "dial[3]",
							"parameter_mmax" : 1.0,
							"parameter_shortname" : "dial[3]",
							"parameter_type" : 0
						}

					}
,
					"size" : 1.0,
					"varname" : "dial[3]"
				}

			}
, 			{
				"box" : 				{
					"id" : "obj-42",
					"maxclass" : "newobj",
					"numinlets" : 2,
					"numoutlets" : 1,
					"outlettype" : [ "signal" ],
					"patching_rect" : [ 239.0, 106.0, 29.5, 22.0 ],
					"text" : "*~"
				}

			}
, 			{
				"box" : 				{
					"id" : "obj-43",
					"maxclass" : "newobj",
					"numinlets" : 2,
					"numoutlets" : 1,
					"outlettype" : [ "signal" ],
					"patching_rect" : [ 206.0, 106.0, 29.5, 22.0 ],
					"text" : "*~"
				}

			}
, 			{
				"box" : 				{
					"floatoutput" : 1,
					"id" : "obj-39",
					"maxclass" : "dial",
					"numinlets" : 1,
					"numoutlets" : 1,
					"outlettype" : [ "float" ],
					"parameter_enable" : 1,
					"patching_rect" : [ 89.0, 577.0, 40.0, 40.0 ],
					"presentation" : 1,
					"presentation_rect" : [ 119.0, 214.0, 40.0, 40.0 ],
					"saved_attribute_attributes" : 					{
						"valueof" : 						{
							"parameter_longname" : "dial[1]",
							"parameter_mmax" : 1.0,
							"parameter_shortname" : "dial[1]",
							"parameter_type" : 0
						}

					}
,
					"size" : 1.0,
					"varname" : "dial[1]"
				}

			}
, 			{
				"box" : 				{
					"id" : "obj-40",
					"maxclass" : "newobj",
					"numinlets" : 2,
					"numoutlets" : 1,
					"outlettype" : [ "signal" ],
					"patching_rect" : [ 235.0, 406.0, 29.5, 22.0 ],
					"text" : "*~"
				}

			}
, 			{
				"box" : 				{
					"id" : "obj-41",
					"maxclass" : "newobj",
					"numinlets" : 2,
					"numoutlets" : 1,
					"outlettype" : [ "signal" ],
					"patching_rect" : [ 202.0, 406.0, 29.5, 22.0 ],
					"text" : "*~"
				}

			}
, 			{
				"box" : 				{
					"id" : "obj-38",
					"maxclass" : "newobj",
					"numinlets" : 2,
					"numoutlets" : 0,
					"patching_rect" : [ 385.0, 426.0, 55.0, 22.0 ],
					"text" : "dac~ 1 2"
				}

			}
, 			{
				"box" : 				{
					"id" : "obj-23",
					"linecount" : 2,
					"maxclass" : "comment",
					"numinlets" : 1,
					"numoutlets" : 0,
					"patching_rect" : [ 478.0, 532.5, 32.0, 33.0 ],
					"presentation" : 1,
					"presentation_linecount" : 2,
					"presentation_rect" : [ 113.0, 267.5, 32.0, 33.0 ],
					"text" : "d.\ngain"
				}

			}
, 			{
				"box" : 				{
					"id" : "obj-24",
					"maxclass" : "newobj",
					"numinlets" : 7,
					"numoutlets" : 2,
					"outlettype" : [ "signal", "signal" ],
					"patching_rect" : [ 541.0, 266.0, 248.0, 22.0 ],
					"text" : "sdelay~"
				}

			}
, 			{
				"box" : 				{
					"id" : "obj-35",
					"maxclass" : "comment",
					"numinlets" : 1,
					"numoutlets" : 0,
					"patching_rect" : [ 684.0, 550.0, 50.0, 20.0 ],
					"presentation" : 1,
					"presentation_rect" : [ 319.0, 285.0, 50.0, 20.0 ],
					"text" : "spread"
				}

			}
, 			{
				"box" : 				{
					"id" : "obj-33",
					"maxclass" : "comment",
					"numinlets" : 1,
					"numoutlets" : 0,
					"patching_rect" : [ 634.0, 550.0, 32.0, 20.0 ],
					"presentation" : 1,
					"presentation_rect" : [ 269.0, 285.0, 32.0, 20.0 ],
					"text" : "time"
				}

			}
, 			{
				"box" : 				{
					"floatoutput" : 1,
					"id" : "obj-28",
					"maxclass" : "dial",
					"numinlets" : 1,
					"numoutlets" : 1,
					"outlettype" : [ "float" ],
					"parameter_enable" : 1,
					"patching_rect" : [ 689.0, 572.0, 40.0, 40.0 ],
					"presentation" : 1,
					"presentation_rect" : [ 324.0, 307.0, 40.0, 40.0 ],
					"saved_attribute_attributes" : 					{
						"valueof" : 						{
							"parameter_longname" : "dial[11]",
							"parameter_mmax" : 1.0,
							"parameter_shortname" : "dial[11]",
							"parameter_type" : 0
						}

					}
,
					"size" : 1.0,
					"varname" : "dial[11]"
				}

			}
, 			{
				"box" : 				{
					"floatoutput" : 1,
					"id" : "obj-27",
					"maxclass" : "dial",
					"min" : 10.0,
					"numinlets" : 1,
					"numoutlets" : 1,
					"outlettype" : [ "float" ],
					"parameter_enable" : 1,
					"patching_rect" : [ 634.0, 572.0, 40.0, 40.0 ],
					"presentation" : 1,
					"presentation_rect" : [ 269.0, 307.0, 40.0, 40.0 ],
					"saved_attribute_attributes" : 					{
						"valueof" : 						{
							"parameter_longname" : "dial[10]",
							"parameter_mmax" : 4000.0,
							"parameter_shortname" : "dial[10]",
							"parameter_type" : 0
						}

					}
,
					"size" : 4000.0,
					"varname" : "dial[10]"
				}

			}
, 			{
				"box" : 				{
					"id" : "obj-25",
					"maxclass" : "comment",
					"numinlets" : 1,
					"numoutlets" : 0,
					"patching_rect" : [ 568.0, 550.0, 57.0, 20.0 ],
					"presentation" : 1,
					"presentation_rect" : [ 203.0, 285.0, 57.0, 20.0 ],
					"text" : "feedback"
				}

			}
, 			{
				"box" : 				{
					"id" : "obj-26",
					"linecount" : 2,
					"maxclass" : "comment",
					"numinlets" : 1,
					"numoutlets" : 0,
					"patching_rect" : [ 521.0, 532.5, 45.0, 33.0 ],
					"presentation" : 1,
					"presentation_linecount" : 2,
					"presentation_rect" : [ 156.0, 267.5, 45.0, 33.0 ],
					"text" : "d. \nlevel"
				}

			}
, 			{
				"box" : 				{
					"floatoutput" : 1,
					"id" : "obj-29",
					"maxclass" : "dial",
					"numinlets" : 1,
					"numoutlets" : 1,
					"outlettype" : [ "float" ],
					"parameter_enable" : 1,
					"patching_rect" : [ 576.5, 572.0, 40.0, 40.0 ],
					"presentation" : 1,
					"presentation_rect" : [ 211.5, 307.0, 40.0, 40.0 ],
					"saved_attribute_attributes" : 					{
						"valueof" : 						{
							"parameter_longname" : "dial[9]",
							"parameter_mmax" : 1.0,
							"parameter_shortname" : "dial[9]",
							"parameter_type" : 0
						}

					}
,
					"size" : 1.0,
					"varname" : "dial[9]"
				}

			}
, 			{
				"box" : 				{
					"floatoutput" : 1,
					"id" : "obj-30",
					"maxclass" : "dial",
					"numinlets" : 1,
					"numoutlets" : 1,
					"outlettype" : [ "float" ],
					"parameter_enable" : 1,
					"patching_rect" : [ 523.5, 572.0, 40.0, 40.0 ],
					"presentation" : 1,
					"presentation_rect" : [ 158.5, 307.0, 40.0, 40.0 ],
					"saved_attribute_attributes" : 					{
						"valueof" : 						{
							"parameter_longname" : "dial[8]",
							"parameter_mmax" : 1.0,
							"parameter_shortname" : "dial[8]",
							"parameter_type" : 0
						}

					}
,
					"size" : 1.0,
					"varname" : "dial[8]"
				}

			}
, 			{
				"box" : 				{
					"floatoutput" : 1,
					"id" : "obj-31",
					"maxclass" : "dial",
					"numinlets" : 1,
					"numoutlets" : 1,
					"outlettype" : [ "float" ],
					"parameter_enable" : 1,
					"patching_rect" : [ 474.0, 572.0, 40.0, 40.0 ],
					"presentation" : 1,
					"presentation_rect" : [ 109.0, 307.0, 40.0, 40.0 ],
					"saved_attribute_attributes" : 					{
						"valueof" : 						{
							"parameter_longname" : "dial[7]",
							"parameter_mmax" : 1.0,
							"parameter_shortname" : "dial[7]",
							"parameter_type" : 0
						}

					}
,
					"size" : 1.0,
					"varname" : "dial[7]"
				}

			}
, 			{
				"box" : 				{
					"id" : "obj-18",
					"maxclass" : "comment",
					"numinlets" : 1,
					"numoutlets" : 0,
					"patching_rect" : [ 66.0, 522.5, 46.0, 20.0 ],
					"presentation" : 1,
					"presentation_rect" : [ 96.0, 159.5, 46.0, 20.0 ],
					"text" : "mic in"
				}

			}
, 			{
				"box" : 				{
					"id" : "obj-17",
					"maxclass" : "comment",
					"numinlets" : 1,
					"numoutlets" : 0,
					"patching_rect" : [ 134.0, 7.5, 46.0, 20.0 ],
					"text" : "mod in"
				}

			}
, 			{
				"box" : 				{
					"id" : "obj-14",
					"maxclass" : "meter~",
					"numinlets" : 1,
					"numoutlets" : 1,
					"outlettype" : [ "float" ],
					"patching_rect" : [ 29.0, 466.5, 80.0, 13.0 ]
				}

			}
, 			{
				"box" : 				{
					"id" : "obj-15",
					"maxclass" : "meter~",
					"numinlets" : 1,
					"numoutlets" : 1,
					"outlettype" : [ "float" ],
					"patching_rect" : [ 29.0, 451.5, 80.0, 13.0 ]
				}

			}
, 			{
				"box" : 				{
					"id" : "obj-13",
					"maxclass" : "meter~",
					"numinlets" : 1,
					"numoutlets" : 1,
					"outlettype" : [ "float" ],
					"patching_rect" : [ 60.0, 344.5, 80.0, 13.0 ]
				}

			}
, 			{
				"box" : 				{
					"id" : "obj-12",
					"maxclass" : "meter~",
					"numinlets" : 1,
					"numoutlets" : 1,
					"outlettype" : [ "float" ],
					"patching_rect" : [ 60.0, 329.5, 80.0, 13.0 ]
				}

			}
, 			{
				"box" : 				{
					"floatoutput" : 1,
					"id" : "obj-7",
					"maxclass" : "dial",
					"numinlets" : 1,
					"numoutlets" : 1,
					"outlettype" : [ "float" ],
					"parameter_enable" : 1,
					"patching_rect" : [ 149.0, 577.0, 40.0, 40.0 ],
					"presentation" : 1,
					"presentation_rect" : [ 179.0, 214.0, 40.0, 40.0 ],
					"saved_attribute_attributes" : 					{
						"valueof" : 						{
							"parameter_longname" : "dial[2]",
							"parameter_mmax" : 1.0,
							"parameter_shortname" : "dial[2]",
							"parameter_type" : 0
						}

					}
,
					"size" : 1.0,
					"varname" : "dial[2]"
				}

			}
, 			{
				"box" : 				{
					"id" : "obj-8",
					"maxclass" : "newobj",
					"numinlets" : 2,
					"numoutlets" : 1,
					"outlettype" : [ "signal" ],
					"patching_rect" : [ 167.0, 106.0, 29.5, 22.0 ],
					"text" : "*~"
				}

			}
, 			{
				"box" : 				{
					"id" : "obj-9",
					"maxclass" : "newobj",
					"numinlets" : 2,
					"numoutlets" : 1,
					"outlettype" : [ "signal" ],
					"patching_rect" : [ 134.0, 106.0, 29.5, 22.0 ],
					"text" : "*~"
				}

			}
, 			{
				"box" : 				{
					"id" : "obj-10",
					"maxclass" : "newobj",
					"numinlets" : 1,
					"numoutlets" : 2,
					"outlettype" : [ "signal", "signal" ],
					"patching_rect" : [ 134.0, 33.0, 55.0, 22.0 ],
					"text" : "adc~ 5 6"
				}

			}
, 			{
				"box" : 				{
					"id" : "obj-6",
					"maxclass" : "newobj",
					"numinlets" : 2,
					"numoutlets" : 0,
					"patching_rect" : [ 474.0, 426.0, 55.0, 22.0 ],
					"text" : "dac~ 5 6"
				}

			}
, 			{
				"box" : 				{
					"floatoutput" : 1,
					"id" : "obj-5",
					"maxclass" : "dial",
					"numinlets" : 1,
					"numoutlets" : 1,
					"outlettype" : [ "float" ],
					"parameter_enable" : 1,
					"patching_rect" : [ 41.0, 577.0, 40.0, 40.0 ],
					"presentation" : 1,
					"presentation_rect" : [ 71.0, 214.0, 40.0, 40.0 ],
					"saved_attribute_attributes" : 					{
						"valueof" : 						{
							"parameter_longname" : "dial",
							"parameter_mmax" : 1.0,
							"parameter_shortname" : "dial",
							"parameter_type" : 0
						}

					}
,
					"size" : 1.0,
					"varname" : "dial"
				}

			}
, 			{
				"box" : 				{
					"id" : "obj-3",
					"maxclass" : "newobj",
					"numinlets" : 2,
					"numoutlets" : 1,
					"outlettype" : [ "signal" ],
					"patching_rect" : [ 47.0, 106.0, 29.5, 22.0 ],
					"text" : "*~"
				}

			}
, 			{
				"box" : 				{
					"id" : "obj-2",
					"maxclass" : "newobj",
					"numinlets" : 2,
					"numoutlets" : 1,
					"outlettype" : [ "signal" ],
					"patching_rect" : [ 14.0, 106.0, 29.5, 22.0 ],
					"text" : "*~"
				}

			}
, 			{
				"box" : 				{
					"id" : "obj-1",
					"maxclass" : "newobj",
					"numinlets" : 1,
					"numoutlets" : 2,
					"outlettype" : [ "signal", "signal" ],
					"patching_rect" : [ 14.0, 33.0, 55.0, 22.0 ],
					"text" : "adc~ 1 2"
				}

			}
, 			{
				"box" : 				{
					"angle" : 270.0,
					"border" : 1,
					"bordercolor" : [ 0.0, 0.0, 0.0, 1.0 ],
					"grad1" : [ 0.996078431372549, 0.996078431372549, 0.996078431372549, 1.0 ],
					"grad2" : [ 0.996078431372549, 0.996078431372549, 0.996078431372549, 1.0 ],
					"id" : "obj-86",
					"maxclass" : "panel",
					"mode" : 1,
					"numinlets" : 1,
					"numoutlets" : 0,
					"patching_rect" : [ 626.0, 363.5, 128.0, 128.0 ],
					"presentation" : 1,
					"presentation_rect" : [ 38.5, 84.0, 455.0, 317.0 ],
					"proportion" : 0.5
				}

			}
 ],
		"lines" : [ 			{
				"patchline" : 				{
					"destination" : [ "obj-2", 0 ],
					"order" : 1,
					"source" : [ "obj-1", 0 ]
				}

			}
, 			{
				"patchline" : 				{
					"destination" : [ "obj-3", 0 ],
					"order" : 1,
					"source" : [ "obj-1", 1 ]
				}

			}
, 			{
				"patchline" : 				{
					"destination" : [ "obj-40", 0 ],
					"order" : 0,
					"source" : [ "obj-1", 1 ]
				}

			}
, 			{
				"patchline" : 				{
					"destination" : [ "obj-41", 0 ],
					"order" : 0,
					"source" : [ "obj-1", 0 ]
				}

			}
, 			{
				"patchline" : 				{
					"destination" : [ "obj-24", 1 ],
					"order" : 0,
					"source" : [ "obj-10", 1 ]
				}

			}
, 			{
				"patchline" : 				{
					"destination" : [ "obj-24", 0 ],
					"order" : 0,
					"source" : [ "obj-10", 0 ]
				}

			}
, 			{
				"patchline" : 				{
					"destination" : [ "obj-42", 0 ],
					"order" : 1,
					"source" : [ "obj-10", 1 ]
				}

			}
, 			{
				"patchline" : 				{
					"destination" : [ "obj-43", 0 ],
					"order" : 1,
					"source" : [ "obj-10", 0 ]
				}

			}
, 			{
				"patchline" : 				{
					"destination" : [ "obj-8", 0 ],
					"order" : 2,
					"source" : [ "obj-10", 1 ]
				}

			}
, 			{
				"patchline" : 				{
					"destination" : [ "obj-9", 0 ],
					"order" : 2,
					"source" : [ "obj-10", 0 ]
				}

			}
, 			{
				"patchline" : 				{
					"destination" : [ "obj-12", 0 ],
					"order" : 1,
					"source" : [ "obj-2", 0 ]
				}

			}
, 			{
				"patchline" : 				{
					"destination" : [ "obj-6", 0 ],
					"order" : 0,
					"source" : [ "obj-2", 0 ]
				}

			}
, 			{
				"patchline" : 				{
					"destination" : [ "obj-73", 1 ],
					"order" : 0,
					"source" : [ "obj-24", 1 ]
				}

			}
, 			{
				"patchline" : 				{
					"destination" : [ "obj-74", 0 ],
					"order" : 0,
					"source" : [ "obj-24", 0 ]
				}

			}
, 			{
				"patchline" : 				{
					"destination" : [ "obj-75", 0 ],
					"order" : 1,
					"source" : [ "obj-24", 1 ]
				}

			}
, 			{
				"patchline" : 				{
					"destination" : [ "obj-76", 0 ],
					"order" : 1,
					"source" : [ "obj-24", 0 ]
				}

			}
, 			{
				"patchline" : 				{
					"destination" : [ "obj-24", 5 ],
					"source" : [ "obj-27", 0 ]
				}

			}
, 			{
				"patchline" : 				{
					"destination" : [ "obj-24", 6 ],
					"source" : [ "obj-28", 0 ]
				}

			}
, 			{
				"patchline" : 				{
					"destination" : [ "obj-24", 4 ],
					"source" : [ "obj-29", 0 ]
				}

			}
, 			{
				"patchline" : 				{
					"destination" : [ "obj-13", 0 ],
					"order" : 1,
					"source" : [ "obj-3", 0 ]
				}

			}
, 			{
				"patchline" : 				{
					"destination" : [ "obj-6", 1 ],
					"order" : 0,
					"source" : [ "obj-3", 0 ]
				}

			}
, 			{
				"patchline" : 				{
					"destination" : [ "obj-24", 3 ],
					"source" : [ "obj-30", 0 ]
				}

			}
, 			{
				"patchline" : 				{
					"destination" : [ "obj-24", 2 ],
					"source" : [ "obj-31", 0 ]
				}

			}
, 			{
				"patchline" : 				{
					"destination" : [ "obj-40", 1 ],
					"order" : 0,
					"source" : [ "obj-39", 0 ]
				}

			}
, 			{
				"patchline" : 				{
					"destination" : [ "obj-41", 1 ],
					"order" : 1,
					"source" : [ "obj-39", 0 ]
				}

			}
, 			{
				"patchline" : 				{
					"destination" : [ "obj-38", 1 ],
					"source" : [ "obj-40", 0 ]
				}

			}
, 			{
				"patchline" : 				{
					"destination" : [ "obj-38", 0 ],
					"source" : [ "obj-41", 0 ]
				}

			}
, 			{
				"patchline" : 				{
					"destination" : [ "obj-38", 1 ],
					"source" : [ "obj-42", 0 ]
				}

			}
, 			{
				"patchline" : 				{
					"destination" : [ "obj-38", 0 ],
					"source" : [ "obj-43", 0 ]
				}

			}
, 			{
				"patchline" : 				{
					"destination" : [ "obj-42", 1 ],
					"order" : 0,
					"source" : [ "obj-44", 0 ]
				}

			}
, 			{
				"patchline" : 				{
					"destination" : [ "obj-43", 1 ],
					"order" : 1,
					"source" : [ "obj-44", 0 ]
				}

			}
, 			{
				"patchline" : 				{
					"destination" : [ "obj-46", 0 ],
					"source" : [ "obj-45", 1 ]
				}

			}
, 			{
				"patchline" : 				{
					"destination" : [ "obj-47", 0 ],
					"source" : [ "obj-45", 0 ]
				}

			}
, 			{
				"patchline" : 				{
					"destination" : [ "obj-6", 1 ],
					"source" : [ "obj-46", 0 ]
				}

			}
, 			{
				"patchline" : 				{
					"destination" : [ "obj-6", 0 ],
					"source" : [ "obj-47", 0 ]
				}

			}
, 			{
				"patchline" : 				{
					"destination" : [ "obj-46", 1 ],
					"order" : 0,
					"source" : [ "obj-48", 0 ]
				}

			}
, 			{
				"patchline" : 				{
					"destination" : [ "obj-47", 1 ],
					"order" : 1,
					"source" : [ "obj-48", 0 ]
				}

			}
, 			{
				"patchline" : 				{
					"destination" : [ "obj-2", 1 ],
					"order" : 1,
					"source" : [ "obj-5", 0 ]
				}

			}
, 			{
				"patchline" : 				{
					"destination" : [ "obj-3", 1 ],
					"order" : 0,
					"source" : [ "obj-5", 0 ]
				}

			}
, 			{
				"patchline" : 				{
					"destination" : [ "obj-8", 1 ],
					"order" : 0,
					"source" : [ "obj-7", 0 ]
				}

			}
, 			{
				"patchline" : 				{
					"destination" : [ "obj-9", 1 ],
					"order" : 1,
					"source" : [ "obj-7", 0 ]
				}

			}
, 			{
				"patchline" : 				{
					"destination" : [ "obj-73", 0 ],
					"order" : 0,
					"source" : [ "obj-71", 0 ]
				}

			}
, 			{
				"patchline" : 				{
					"destination" : [ "obj-74", 1 ],
					"order" : 1,
					"source" : [ "obj-71", 0 ]
				}

			}
, 			{
				"patchline" : 				{
					"destination" : [ "obj-75", 1 ],
					"order" : 0,
					"source" : [ "obj-72", 0 ]
				}

			}
, 			{
				"patchline" : 				{
					"destination" : [ "obj-76", 1 ],
					"order" : 1,
					"source" : [ "obj-72", 0 ]
				}

			}
, 			{
				"patchline" : 				{
					"destination" : [ "obj-38", 1 ],
					"source" : [ "obj-73", 0 ]
				}

			}
, 			{
				"patchline" : 				{
					"destination" : [ "obj-38", 0 ],
					"source" : [ "obj-74", 0 ]
				}

			}
, 			{
				"patchline" : 				{
					"destination" : [ "obj-6", 1 ],
					"source" : [ "obj-75", 0 ]
				}

			}
, 			{
				"patchline" : 				{
					"destination" : [ "obj-6", 0 ],
					"source" : [ "obj-76", 0 ]
				}

			}
, 			{
				"patchline" : 				{
					"destination" : [ "obj-14", 0 ],
					"order" : 1,
					"source" : [ "obj-8", 0 ]
				}

			}
, 			{
				"patchline" : 				{
					"destination" : [ "obj-6", 1 ],
					"order" : 0,
					"source" : [ "obj-8", 0 ]
				}

			}
, 			{
				"patchline" : 				{
					"destination" : [ "obj-15", 0 ],
					"order" : 1,
					"source" : [ "obj-9", 0 ]
				}

			}
, 			{
				"patchline" : 				{
					"destination" : [ "obj-6", 0 ],
					"order" : 0,
					"source" : [ "obj-9", 0 ]
				}

			}
 ],
		"parameters" : 		{
			"obj-27" : [ "dial[10]", "dial[10]", 0 ],
			"obj-28" : [ "dial[11]", "dial[11]", 0 ],
			"obj-29" : [ "dial[9]", "dial[9]", 0 ],
			"obj-30" : [ "dial[8]", "dial[8]", 0 ],
			"obj-31" : [ "dial[7]", "dial[7]", 0 ],
			"obj-39" : [ "dial[1]", "dial[1]", 0 ],
			"obj-44" : [ "dial[3]", "dial[3]", 0 ],
			"obj-48" : [ "dial[6]", "dial[6]", 0 ],
			"obj-5" : [ "dial", "dial", 0 ],
			"obj-7" : [ "dial[2]", "dial[2]", 0 ],
			"obj-71" : [ "dial[5]", "dial[5]", 0 ],
			"obj-72" : [ "dial[4]", "dial[4]", 0 ],
			"parameterbanks" : 			{

			}
,
			"inherited_shortname" : 1
		}
,
		"parameter_map" : 		{
			"midi" : 			{
				"dial" : 				{
					"srcname" : "21.ctrl.8.chan.midi",
					"min" : 0.0,
					"max" : 1.0,
					"flags" : 2
				}
,
				"dial[1]" : 				{
					"srcname" : "22.ctrl.8.chan.midi",
					"min" : 0.0,
					"max" : 1.0,
					"flags" : 2
				}
,
				"dial[2]" : 				{
					"srcname" : "23.ctrl.8.chan.midi",
					"min" : 0.0,
					"max" : 1.0,
					"flags" : 2
				}
,
				"dial[3]" : 				{
					"srcname" : "24.ctrl.8.chan.midi",
					"min" : 0.0,
					"max" : 1.0,
					"flags" : 2
				}
,
				"dial[4]" : 				{
					"srcname" : "25.ctrl.8.chan.midi",
					"min" : 0.0,
					"max" : 1.0,
					"flags" : 2
				}
,
				"dial[5]" : 				{
					"srcname" : "26.ctrl.8.chan.midi",
					"min" : 0.0,
					"max" : 1.0,
					"flags" : 2
				}
,
				"dial[6]" : 				{
					"srcname" : "27.ctrl.8.chan.midi",
					"min" : 0.0,
					"max" : 1.0,
					"flags" : 2
				}
,
				"dial[7]" : 				{
					"srcname" : "41.ctrl.8.chan.midi",
					"min" : 0.0,
					"max" : 1.0,
					"flags" : 2
				}
,
				"dial[8]" : 				{
					"srcname" : "42.ctrl.8.chan.midi",
					"min" : 0.0,
					"max" : 1.0,
					"flags" : 2
				}
,
				"dial[9]" : 				{
					"srcname" : "43.ctrl.8.chan.midi",
					"min" : 0.0,
					"max" : 1.0,
					"flags" : 2
				}
,
				"dial[10]" : 				{
					"srcname" : "44.ctrl.8.chan.midi",
					"min" : 0.0,
					"max" : 4000.0,
					"flags" : 2
				}
,
				"dial[11]" : 				{
					"srcname" : "45.ctrl.8.chan.midi",
					"min" : 0.0,
					"max" : 1.0,
					"flags" : 2
				}

			}

		}
,
		"dependency_cache" : [ 			{
				"name" : "sdelay~.maxpat",
				"bootpath" : "~/Documents/Max 8/Library",
				"patcherrelativepath" : ".",
				"type" : "JSON",
				"implicit" : 1
			}
 ],
		"autosave" : 0
	}

}
